<svg width="292" height="47" viewBox="0 0 292 47" fill="none" xmlns="http://www.w3.org/2000/svg">
<g id="Pazarama &#195;&#188;st logo">
<path id="Shape" fill-rule="evenodd" clip-rule="evenodd" d="M8.73568 8.49141C10.2066 5.90209 12.338 3.7644 14.9197 2.28909C17.5014 0.783667 20.4733 0.0008494 23.5052 0.0309578C26.5372 0.0008494 29.4791 0.783667 32.0908 2.28909C34.6725 3.7644 36.8039 5.90209 38.2748 8.49141C39.7758 11.1108 40.5563 14.0916 40.5263 17.1024C40.5563 20.1132 39.7758 23.094 38.2748 25.6833C36.8039 28.2726 34.6725 30.4103 32.0908 31.8856C29.4791 33.391 26.5072 34.204 23.5052 34.1738C20.4733 34.204 17.5314 33.4211 14.9197 31.8856C12.338 30.4103 10.2066 28.2726 8.73568 25.6833C7.23471 23.0639 6.42418 20.1132 6.4542 17.1024C6.42418 14.0615 7.20469 11.1108 8.73568 8.49141ZM34.0421 17.1024C34.1021 14.2421 33.0214 11.4721 31.0702 9.39466C29.0889 7.34729 26.3871 6.23328 23.5653 6.32361C20.7134 6.26339 17.9817 7.3774 16.0004 9.45488C13.9891 11.4721 12.8784 14.2421 12.9384 17.1024C12.8784 19.9627 13.9891 22.7327 16.0304 24.7499C17.9817 26.7973 20.7134 27.9414 23.5653 27.8812C26.3871 27.9715 29.1189 26.8274 31.0401 24.7499C33.0214 22.7026 34.1021 19.9627 34.0421 17.1024Z" fill="#F219AF"/>
<path id="Shape_2" fill-rule="evenodd" clip-rule="evenodd" d="M69.1048 32.5781C67.1535 33.6921 64.9621 34.2642 62.7406 34.2341C53.3145 34.2341 45.6596 26.5865 45.6596 17.1024C45.6296 14.0916 46.4101 11.1108 47.9411 8.4914C49.442 5.90208 51.6034 3.73427 54.1851 2.25896C56.7668 0.753546 59.7387 -0.0292714 62.7406 0.000836918C65.7426 -0.0292714 68.6845 0.753546 71.2662 2.25896C73.8478 3.76438 76.0092 5.90208 77.4802 8.4914C78.9812 11.1108 79.7617 14.0916 79.7317 17.1024V33.6921H73.2475V28.4532C72.3168 30.2296 70.8759 31.6748 69.1048 32.5781ZM0 47H6.54424V29.4769C9.12591 32.6082 12.9684 34.3545 17.021 34.2341C20.023 34.2341 22.9949 33.4512 25.5766 31.9458C28.1582 30.4705 30.2896 28.3027 31.7906 25.7134C33.3216 23.1241 34.1021 20.1433 34.0721 17.1325C34.1021 14.1217 33.2916 11.1409 31.7906 8.52151C30.3196 5.93219 28.1582 3.79449 25.5766 2.28907C22.9649 0.783655 20.023 0.000836918 17.021 0.0309453C7.62494 0.0309453 0 7.67847 0 17.1024V17.1325V47ZM17.021 27.9414C14.1692 28.0016 11.4374 26.8575 9.48615 24.8101C7.47484 22.7628 6.36412 19.9928 6.42416 17.1325C6.36412 14.2722 7.47484 11.5022 9.48615 9.45486C11.4374 7.37739 14.1692 6.23327 17.021 6.32359C19.8729 6.26338 22.6046 7.37739 24.5859 9.42476C26.5672 11.5022 27.6479 14.2722 27.5879 17.1325C27.6479 19.9928 26.5672 22.7628 24.5559 24.8101C22.6046 26.8575 19.8729 28.0016 17.021 27.9414ZM55.2358 24.8101C53.1945 22.7929 52.0837 20.0229 52.1438 17.1325C52.0837 14.2722 53.1945 11.5022 55.2058 9.45486C57.187 7.37739 59.9488 6.23327 62.8007 6.32359C65.6225 6.26338 68.3543 7.37739 70.3356 9.42476C72.2868 11.5022 73.3675 14.2722 73.3075 17.1325C73.3675 19.9928 72.2868 22.7628 70.3055 24.8101C68.3843 26.8876 65.6525 28.0317 62.8007 27.9414C59.9488 28.0016 57.187 26.8876 55.2358 24.8101ZM108.941 0.542788V6.86554L91.1691 27.3693H109.481V33.6921H82.9738C82.9738 33.6921 82.9437 31.6146 82.9738 29.4167C82.9137 28.6941 83.0638 27.9414 83.394 27.279C84.3546 25.7134 100.655 6.86554 100.655 6.86554H83.9344V0.542788H108.941ZM127.613 34.2341C129.834 34.2642 132.026 33.6921 133.977 32.5781C135.748 31.6748 137.189 30.2296 138.119 28.4532V33.6921H144.604V17.1024C144.634 14.0916 143.853 11.1108 142.352 8.4914C140.881 5.90208 138.72 3.76438 136.138 2.25896C133.557 0.753546 130.615 -0.0292714 127.613 0.000836918C124.611 -0.0292714 121.639 0.753546 119.057 2.25896C116.475 3.73427 114.314 5.90208 112.813 8.4914C111.282 11.1108 110.502 14.0916 110.532 17.1024C110.532 26.5865 118.187 34.2341 127.613 34.2341ZM117.016 17.1325C116.956 20.0229 118.066 22.7929 120.108 24.8101C122.059 26.8876 124.821 28.0016 127.673 27.9414C130.525 28.0317 133.256 26.8876 135.178 24.8101C137.159 22.7628 138.24 19.9928 138.18 17.1325C138.24 14.2722 137.189 11.5022 135.208 9.42476C133.226 7.37739 130.495 6.26338 127.673 6.32359C124.821 6.23327 122.059 7.37739 120.078 9.45486C118.066 11.5022 116.956 14.2722 117.016 17.1325ZM155.651 33.6921V16.3798C155.651 9.87638 158.323 6.68489 163.066 6.68489H163.726V0.392246H163.066C159.283 0.211596 155.591 1.68691 152.949 4.39666C150.397 7.0763 149.137 11.0807 149.137 16.3497V33.6921H155.651ZM188.822 32.5781C186.871 33.6921 184.68 34.2642 182.458 34.2341C173.032 34.2341 165.407 26.5564 165.377 17.1024C165.347 14.0916 166.128 11.1108 167.659 8.4914C169.16 5.90208 171.321 3.73427 173.903 2.25896C176.484 0.753546 179.456 -0.0292714 182.458 0.000836918C185.46 -0.0292714 188.402 0.753546 190.984 2.25896C193.565 3.76438 195.727 5.90208 197.198 8.4914C198.699 11.1108 199.479 14.0916 199.449 17.1024V33.6921H192.965V28.4532C192.034 30.2296 190.593 31.6748 188.822 32.5781ZM174.983 24.8101C172.942 22.7929 171.831 20.0229 171.891 17.1325C171.831 14.2722 172.942 11.5022 174.953 9.45486C176.935 7.37739 179.696 6.23327 182.548 6.32359C185.37 6.26338 188.102 7.37739 190.083 9.42476C192.034 11.5022 193.115 14.2722 193.055 17.1325C193.115 19.9928 192.034 22.7628 190.053 24.8101C188.132 26.8876 185.4 28.0317 182.548 27.9414C179.666 28.0317 176.935 26.8876 174.983 24.8101ZM228.868 6.17305C231.09 2.16864 235.413 -0.209922 239.975 0.0309453C243.878 -0.149705 247.66 1.32561 250.362 4.12568C252.974 6.86554 254.265 10.9302 254.265 16.2594V33.7222H247.811V16.2594C247.811 9.63551 245.199 6.32359 239.945 6.32359C234.902 6.32359 232.08 9.60541 232.08 16.2594V33.7222H225.626V16.2594C225.626 9.63551 223.014 6.32359 217.761 6.32359C212.718 6.32359 209.896 9.60541 209.896 16.2594V33.7222H203.412V16.2594C203.412 10.9302 204.733 6.89565 207.344 4.12568C210.076 1.32561 213.859 -0.149705 217.761 0.0309453C222.324 -0.24003 226.647 2.16864 228.868 6.17305ZM275.008 34.2341C277.23 34.2642 279.421 33.6921 281.372 32.5781C283.143 31.6748 284.584 30.2296 285.515 28.4532V33.6921H291.999V17.1024C292.029 14.0916 291.249 11.1108 289.748 8.4914C288.277 5.90208 286.115 3.76438 283.534 2.25896C280.952 0.753546 278.01 -0.0292714 275.008 0.000836918C272.006 -0.0292714 269.034 0.753546 266.453 2.25896C263.871 3.73427 261.71 5.87197 260.209 8.46129C258.678 11.0807 257.897 14.0614 257.927 17.0723C257.957 26.5564 265.582 34.2341 275.008 34.2341ZM264.441 17.1325C264.381 20.0229 265.492 22.7929 267.533 24.8101C269.485 26.8876 272.216 28.0016 275.098 27.9414C277.95 28.0317 280.682 26.8876 282.603 24.8101C284.584 22.7628 285.665 19.9928 285.605 17.1325C285.665 14.2722 284.584 11.5022 282.633 9.42476C280.652 7.37739 277.92 6.26338 275.098 6.32359C272.246 6.23327 269.485 7.37739 267.503 9.45486C265.492 11.5022 264.381 14.2722 264.441 17.1325Z" fill="#0136F4"/>
<path id="Path" d="M12.9084 16.8013H6.42419C6.51425 7.43762 14.1392 -0.0593661 23.4752 0.0309591C32.7813 -0.0593661 40.4062 7.46773 40.4963 16.8013H34.1922C34.1321 14.0314 32.9914 11.3818 31.0702 9.39466C29.1189 7.34729 26.3871 6.23328 23.5653 6.2935C20.7135 6.23328 17.9517 7.3774 16.0004 9.42477C14.0491 11.3818 12.9384 14.0314 12.9084 16.8013V16.8013Z" fill="#F219AF"/>
</g>
</svg>
